<svg width="312" height="70" viewBox="0 0 312 70" fill="none" xmlns="http://www.w3.org/2000/svg">
<path d="M52.8926 0H27.2165C21.0543 0 16.0658 5.45248 16.0658 12.1879V15.3151H38.8808C45.0429 15.3151 50.0315 20.7676 50.0315 27.503V52.5201H52.8926C59.0548 52.5201 64.0432 47.0678 64.0432 40.3323V12.1879C64.0432 5.45248 59.0548 0 52.8926 0Z" fill="#9B6AFA"/>
<path d="M27.2166 52.5197C25.3092 52.5197 23.4752 51.9585 21.8612 50.9963H21.9346H21.8612C20.9809 50.435 20.174 49.7935 19.4404 49.0719L19.147 48.7512C18.4868 47.9493 17.8264 47.0674 17.3863 46.1052C16.506 44.3411 15.9925 42.3364 15.9925 40.2517V26.2998H11.1507C4.98849 26.2998 0 31.7522 0 38.4876V57.812C0 64.5472 4.98849 69.9998 11.1507 69.9998H28.8305C34.9928 69.9998 39.9812 64.5472 39.9812 57.812V52.5197H27.2166Z" fill="#28D9EC"/>
<path d="M32.2784 26.2998H15.9924V40.3319C15.9924 42.4167 16.506 44.4212 17.3863 46.1852C16.6527 44.742 16.9461 42.978 17.9732 41.8554L32.2784 26.2998Z" fill="#3D6AFF"/>
<path d="M25.7492 50.3552C24.7222 51.478 23.1082 51.7986 21.7878 50.9968C23.4018 51.959 25.2357 52.5202 27.143 52.5202H39.9811V34.7998L25.7492 50.3552Z" fill="#3D6AFF"/>
<path d="M80.1091 52.5199L96.8353 8.73975H102.924L119.65 52.5199H112.094L108.793 43.78H90.9666L87.6652 52.5199H80.1091ZM93.1673 37.3652H106.519L99.8431 19.5645L93.1673 37.3652Z" fill="white"/>
<path d="M132.048 64.6276H125.152V20.8474H132.048V25.4178C132.561 23.8943 133.588 22.6115 135.276 21.6493C136.89 20.6871 138.944 20.2061 141.291 20.2061C145.399 20.2061 148.847 21.8096 151.635 24.9368C154.423 28.064 155.816 31.9929 155.816 36.7239C155.816 41.4546 154.423 45.3035 151.635 48.5107C148.847 51.638 145.399 53.2415 141.291 53.2415C138.944 53.2415 136.89 52.7605 135.276 51.7983C133.662 50.8361 132.561 49.5532 132.048 48.0297V64.6276ZM140.411 27.0216C137.917 27.0216 135.789 27.9838 134.102 29.7478C132.415 31.592 131.534 33.9173 131.534 36.6436C131.534 39.3699 132.415 41.6952 134.102 43.5394C135.789 45.3835 137.917 46.2657 140.411 46.2657C142.832 46.2657 144.886 45.3035 146.5 43.5394C148.114 41.6952 148.921 39.3699 148.921 36.6436C148.921 33.9173 148.114 31.592 146.5 29.7478C144.886 27.9838 142.832 27.0216 140.411 27.0216Z" fill="white"/>
<path d="M168.141 64.6276H161.245V20.8474H168.141V25.4178C168.655 23.8943 169.682 22.6115 171.369 21.6493C172.982 20.6871 175.037 20.2061 177.385 20.2061C181.493 20.2061 184.94 21.8096 187.727 24.9368C190.516 28.064 191.909 31.9929 191.909 36.7239C191.909 41.4546 190.516 45.3035 187.727 48.5107C184.94 51.638 181.493 53.2415 177.385 53.2415C175.037 53.2415 172.982 52.7605 171.369 51.7983C169.755 50.8361 168.655 49.5532 168.141 48.0297V64.6276ZM176.504 27.0216C174.01 27.0216 171.882 27.9838 170.195 29.7478C168.508 31.592 167.628 33.9173 167.628 36.6436C167.628 39.3699 168.508 41.6952 170.195 43.5394C171.882 45.3835 174.01 46.2657 176.504 46.2657C178.924 46.2657 180.979 45.3035 182.592 43.5394C184.207 41.6952 185.014 39.3699 185.014 36.6436C185.014 33.9173 184.207 31.592 182.592 29.7478C180.979 27.9838 178.924 27.0216 176.504 27.0216Z" fill="white"/>
<path d="M197.339 52.5201V20.8476H204.16V25.3379C204.748 23.8145 205.775 22.5316 207.096 21.5694C208.489 20.6072 210.03 20.126 211.864 20.126C215.825 20.126 218.54 21.9701 220.007 25.6586C221.62 21.9701 224.775 20.126 229.324 20.126C232.478 20.126 234.898 21.2485 236.586 23.4936C238.273 25.7389 239.154 28.8659 239.154 32.795V42.818C239.154 44.0206 239.301 44.9027 239.52 45.3837C239.814 45.8649 240.328 46.1055 241.061 46.1055C241.428 46.1055 241.721 46.0252 242.014 45.945V52.2795C241.354 52.5201 240.328 52.6804 239.008 52.6804C234.459 52.6804 232.258 49.9543 232.258 44.4215V33.9978C232.258 31.8328 231.818 30.0687 230.937 28.8659C230.056 27.583 228.81 27.0217 227.197 27.0217C225.581 27.0217 224.261 27.7434 223.235 29.1065C222.208 30.4696 221.62 32.2337 221.62 34.3987V52.6003H214.946V33.9978C214.946 31.8328 214.505 30.0687 213.624 28.8659C212.745 27.583 211.424 27.0217 209.809 27.0217C208.196 27.0217 206.875 27.7434 205.775 29.1065C204.674 30.4696 204.16 32.2337 204.16 34.3987V52.6003H197.339V52.5201Z" fill="white"/>
<path d="M249.717 48.5107C246.93 45.3035 245.536 41.3744 245.536 36.7237C245.536 32.0732 246.93 28.1441 249.717 24.9368C252.505 21.8096 255.954 20.2061 260.062 20.2061C262.41 20.2061 264.39 20.6871 266.004 21.7295C267.617 22.7718 268.718 23.9746 269.305 25.4981V20.8474H276.201V42.9781C276.201 44.3412 276.348 45.3035 276.713 45.8647C277.008 46.426 277.594 46.7467 278.328 46.7467C278.768 46.7467 279.208 46.6666 279.795 46.5863V52.6802C279.061 53.0011 277.887 53.1614 276.42 53.1614C274.807 53.1614 273.412 52.8406 272.387 52.119C271.139 51.1568 270.332 49.9541 270.039 48.2701C267.984 51.5577 264.683 53.2415 260.062 53.2415C255.88 53.3218 252.432 51.718 249.717 48.5107ZM254.78 29.8279C253.165 31.6723 252.358 33.9976 252.358 36.7237C252.358 39.45 253.165 41.7753 254.78 43.6196C256.394 45.4638 258.448 46.3457 260.868 46.3457C263.363 46.3457 265.49 45.3835 267.177 43.6196C268.865 41.7753 269.744 39.45 269.744 36.7237C269.744 33.9976 268.865 31.6723 267.177 29.8279C265.49 27.9838 263.363 27.1018 260.868 27.1018C258.448 27.0216 256.466 27.9838 254.78 29.8279Z" fill="white"/>
<path d="M282.362 52.5197L293.366 35.8415L283.389 20.8472H290.872L297.181 30.3089L303.418 20.8472H310.973L300.996 35.7612L312 52.5197H304.591L297.255 41.3741L289.919 52.5197H282.362Z" fill="white"/>
</svg>
